<?xml version="1.0" encoding="utf-8"?>
<!-- Generator: Adobe Illustrator 15.1.0, SVG Export Plug-In . SVG Version: 6.00 Build 0)  -->
<!DOCTYPE svg PUBLIC "-//W3C//DTD SVG 1.1//EN" "http://www.w3.org/Graphics/SVG/1.1/DTD/svg11.dtd">
<svg version="1.1" id="Capa_1" xmlns="http://www.w3.org/2000/svg" xmlns:xlink="http://www.w3.org/1999/xlink" x="0px" y="0px"
	 width="100px" height="100px" viewBox="0 0 100 100" enable-background="new 0 0 100 100" xml:space="preserve">
<g id="Statics">
	<g>
		<path d="M99.406,4.847c0.952-1.439,0.557-3.372-0.882-4.327c-1.441-0.953-3.374-0.56-4.327,0.884L82.646,18.886
			c-0.483-0.078-0.961-0.149-1.462-0.149c-5.16,0-9.367,4.207-9.367,9.368c0,0.993,0.197,1.934,0.483,2.833L61.148,45.16
			c-1.44-0.899-3.123-1.442-4.94-1.442c-5.037,0-9.13,4.006-9.33,8.995L29.23,62.986c-1.713-2.207-4.365-3.655-7.371-3.655
			c-5.165,0-9.368,4.203-9.368,9.367c0,2.029,0.668,3.903,1.767,5.438L0.513,95.088c-0.946,1.442-0.547,3.379,0.897,4.324
			c0.527,0.348,1.124,0.513,1.711,0.513c1.018,0,2.017-0.495,2.613-1.409l13.661-20.818c0.79,0.216,1.608,0.369,2.464,0.369
			c5.036,0,9.13-4.003,9.33-8.996L48.836,58.8c1.714,2.205,4.365,3.653,7.372,3.653c5.164,0,9.367-4.203,9.367-9.368
			c0-0.992-0.193-1.934-0.479-2.83l11.149-14.222c1.44,0.896,3.122,1.439,4.939,1.439c5.162,0,9.369-4.204,9.369-9.368
			c0-2.396-0.931-4.556-2.411-6.214L99.406,4.847z M21.859,71.821c-1.724,0-3.123-1.4-3.123-3.123c0-1.72,1.399-3.123,3.123-3.123
			c1.723,0,3.122,1.403,3.122,3.123C24.981,70.421,23.582,71.821,21.859,71.821z M56.208,56.208c-1.723,0-3.123-1.399-3.123-3.123
			c0-1.72,1.4-3.123,3.123-3.123s3.123,1.403,3.123,3.123C59.331,54.809,57.931,56.208,56.208,56.208z M81.185,31.227
			c-1.724,0-3.122-1.4-3.122-3.123c0-1.72,1.398-3.123,3.122-3.123c1.725,0,3.123,1.402,3.123,3.123
			C84.308,29.827,82.909,31.227,81.185,31.227z M18.736,93.68c-1.728,0-3.123,1.398-3.123,3.123c0,1.726,1.395,3.122,3.123,3.122
			s3.123-1.396,3.123-3.122C21.859,95.078,20.464,93.68,18.736,93.68z M34.349,93.68c-1.727,0-3.123,1.398-3.123,3.123
			c0,1.726,1.396,3.122,3.123,3.122c1.728,0,3.123-1.396,3.123-3.122C37.472,95.078,36.077,93.68,34.349,93.68z M49.962,93.68
			c-1.727,0-3.122,1.398-3.122,3.123c0,1.726,1.395,3.122,3.122,3.122c1.728,0,3.123-1.396,3.123-3.122
			C53.085,95.078,51.689,93.68,49.962,93.68z M65.575,93.68c-1.727,0-3.122,1.398-3.122,3.123c0,1.726,1.396,3.122,3.122,3.122
			c1.729,0,3.123-1.396,3.123-3.122C68.698,95.078,67.304,93.68,65.575,93.68z M81.188,93.68c-1.728,0-3.122,1.398-3.122,3.123
			c0,1.726,1.395,3.122,3.122,3.122c1.729,0,3.122-1.396,3.122-3.122C84.311,95.078,82.917,93.68,81.188,93.68z M96.802,93.68
			c-1.729,0-3.123,1.398-3.123,3.123c0,1.726,1.395,3.122,3.123,3.122c1.728,0,3.122-1.396,3.122-3.122
			C99.924,95.078,98.529,93.68,96.802,93.68z M3.124,84.312c1.727,0,3.122-1.396,3.122-3.123c0-1.724-1.395-3.122-3.122-3.122
			c-1.728,0-3.123,1.398-3.123,3.122C0.001,82.915,1.396,84.312,3.124,84.312z M3.124,68.698c1.727,0,3.122-1.396,3.122-3.123
			c0-1.723-1.395-3.122-3.122-3.122c-1.728,0-3.123,1.399-3.123,3.122C0.001,67.302,1.396,68.698,3.124,68.698z M3.124,53.085
			c1.727,0,3.122-1.396,3.122-3.123c0-1.722-1.395-3.122-3.122-3.122c-1.728,0-3.123,1.399-3.123,3.122
			C0.001,51.689,1.396,53.085,3.124,53.085z M3.124,37.473c1.727,0,3.122-1.392,3.122-3.123c0-1.723-1.395-3.123-3.122-3.123
			c-1.728,0-3.123,1.399-3.123,3.123C0.001,36.081,1.396,37.473,3.124,37.473z M3.124,21.86c1.727,0,3.122-1.393,3.122-3.123
			c0-1.723-1.395-3.123-3.122-3.123c-1.728,0-3.123,1.399-3.123,3.123C0.001,20.467,1.396,21.86,3.124,21.86z M3.124,6.246
			c1.727,0,3.122-1.392,3.122-3.123c0-1.723-1.395-3.123-3.122-3.123c-1.728,0-3.123,1.4-3.123,3.123
			C0.001,4.854,1.396,6.246,3.124,6.246z"/>
	</g>
</g>
</svg>
