<?xml version="1.0" encoding="utf-8"?>
<!-- Generator: Adobe Illustrator 15.1.0, SVG Export Plug-In . SVG Version: 6.00 Build 0)  -->
<!DOCTYPE svg PUBLIC "-//W3C//DTD SVG 1.1//EN" "http://www.w3.org/Graphics/SVG/1.1/DTD/svg11.dtd">
<svg version="1.1" id="Capa_1" xmlns="http://www.w3.org/2000/svg" xmlns:xlink="http://www.w3.org/1999/xlink" x="0px" y="0px"
	 width="15px" height="15px" viewBox="0 0 15 15" enable-background="new 0 0 15 15" xml:space="preserve">
<path fill="#010002" d="M7.501,0.494L0,6.094V15h15V6.094L7.501,0.494z M5.426,4.49c0.221-0.402,0.523-0.705,0.908-0.906
	c0.384-0.203,0.822-0.305,1.317-0.305c0.418,0,0.791,0.082,1.116,0.244c0.326,0.164,0.574,0.395,0.748,0.694
	c0.17,0.302,0.258,0.63,0.258,0.984c0,0.424-0.133,0.807-0.393,1.15C9.053,6.784,8.633,7,8.121,7C7.983,7,7.88,6.978,7.809,6.928
	C7.74,6.879,7.692,6.809,7.669,6.715C7.476,6.906,7.248,7.002,6.992,7.002c-0.276,0-0.505-0.096-0.688-0.285
	c-0.182-0.19-0.272-0.444-0.272-0.76c0-0.393,0.108-0.748,0.329-1.07c0.267-0.393,0.606-0.59,1.022-0.59
	c0.296,0,0.516,0.113,0.655,0.34L8.102,4.36h0.66L8.385,6.148C8.361,6.262,8.35,6.334,8.35,6.367c0,0.043,0.01,0.072,0.028,0.094
	S8.42,6.492,8.446,6.492c0.081,0,0.183-0.047,0.31-0.145c0.17-0.125,0.307-0.298,0.412-0.509c0.105-0.213,0.156-0.434,0.156-0.662
	c0-0.407-0.146-0.75-0.441-1.026C8.586,3.877,8.171,3.738,7.641,3.738c-0.45,0-0.833,0.092-1.146,0.277
	c-0.313,0.182-0.549,0.441-0.71,0.775c-0.158,0.332-0.237,0.68-0.237,1.041c0,0.35,0.09,0.67,0.267,0.957
	C5.992,7.078,6.24,7.287,6.56,7.42c0.32,0.131,0.688,0.197,1.1,0.197c0.396,0,0.738-0.055,1.024-0.166
	C8.969,7.34,9.199,7.176,9.375,6.953h0.531C9.738,7.291,9.484,7.555,9.141,7.748C8.746,7.967,8.265,8.076,7.699,8.076
	c-0.55,0-1.023-0.092-1.422-0.277c-0.4-0.186-0.696-0.459-0.893-0.819c-0.193-0.362-0.29-0.757-0.29-1.183
	C5.095,5.33,5.204,4.895,5.426,4.49z M0.529,6.271l5.534,3.711l-5.534,4.283V6.271z M0.949,14.551l6.552-5.069l6.55,5.069H0.949z
	 M14.471,14.266L8.938,9.982l5.533-3.711V14.266z M7.771,4.898c0.088,0.1,0.132,0.244,0.132,0.432c0,0.168-0.033,0.35-0.098,0.543
	c-0.062,0.195-0.14,0.344-0.228,0.445c-0.061,0.07-0.124,0.123-0.188,0.156C7.308,6.521,7.22,6.544,7.125,6.544
	c-0.127,0.001-0.232-0.05-0.319-0.149C6.721,6.294,6.679,6.141,6.679,5.93c0-0.158,0.03-0.341,0.093-0.546
	c0.062-0.204,0.152-0.36,0.273-0.473C7.167,4.8,7.299,4.745,7.441,4.745C7.574,4.746,7.685,4.797,7.771,4.898z"/>
</svg>
